<svg clip-rule="evenodd" fill-rule="evenodd" height="316.536432" stroke-linejoin="round" stroke-miterlimit="2" viewBox="0 0 1455 1457" width="315.919401" xmlns="http://www.w3.org/2000/svg" xmlns:xlink="http://www.w3.org/1999/xlink"><clipPath id="a"><path clip-rule="evenodd" d="m0 0h1454.17v1456.11h-1454.17z"/></clipPath><path d="m0 0h1454.17v1456.11h-1454.17z" fill="none"/><g clip-path="url(#a)"><path d="m882.982 354.62 117.278-117.586s19.98-15.233 48.86-7.252c28.63 8.015 141.24 34.376 141.24 34.376s26.32 112.872 34.32 141.602c8.01 28.734-7.23 48.769-7.23 48.769l-117.35 117.486.84 2.258h166.15s24.86 3.429 39.45 29.427c14.73 25.951 75.71 124.324 75.71 124.324s-60.98 98.374-75.71 124.408c-14.59 26.01-39.45 29.348-39.45 29.348h-166.15l-.84 2.245 117.35 117.555s15.24 20 7.23 48.83c-8 28.71-34.32 141.44-34.32 141.44s-112.61 26.4-141.24 34.45c-28.88 8.01-48.86-7.18-48.86-7.18l-117.278-117.52-2.237.93v166.06s-3.463 24.95-29.471 39.69c-25.875 14.73-124.121 75.81-124.121 75.81s-98.321-61.08-124.196-75.81c-26.142-14.74-29.462-39.69-29.462-39.69v-166.06l-2.175-.93-117.405 117.52s-19.925 15.19-48.679 7.18c-28.758-8.05-141.356-34.45-141.356-34.45s-26.333-112.7-34.402-141.44c-7.935-28.79 7.306-48.83 7.306-48.83l117.338-117.555-.897-2.245h-166.14s-24.786-3.338-39.512-29.348c-14.674-26.034-75.657-124.408-75.657-124.408s60.983-98.373 75.657-124.324c14.726-25.998 39.512-29.427 39.512-29.427h166.14l.897-2.258-117.338-117.486s-15.241-20.035-7.306-48.769c8.069-28.73 34.402-141.602 34.402-141.602s112.598-26.361 141.228-34.376c28.882-7.981 48.807 7.252 48.807 7.252l117.405 117.586 2.175-.93v-166.298s3.32-24.883 29.462-39.532c25.875-14.69 124.196-75.843 124.196-75.843s98.246 61.153 124.121 75.843c26.008 14.649 29.471 39.532 29.471 39.532v166.298zm475.508 209.485s-21.97-41.272-64.89-41.272h-71.66l50.66-50.801c30.29-30.316 16.72-75.147 16.72-75.147l-48.05-183.65-183.43-48.152s-44.77-13.634-75.075 16.735l-50.725 50.793v-71.833c0-42.904-41.183-65.033-41.183-65.033l-163.704-95.745-163.775 95.745s-41.254 22.129-41.254 65.033v71.833l-50.663-50.793c-30.354-30.369-75.007-16.735-75.007-16.735l-183.495 48.152-48.096 183.65s-13.523 44.831 16.768 75.147l50.674 50.801h-71.738c-42.852 0-64.889 41.272-64.889 41.272l-95.678 163.919 95.678 163.92s22.037 41.334 64.889 41.334h71.738l-50.674 50.726c-30.291 30.386-16.768 75.096-16.768 75.096l48.096 183.74 183.495 48.19s44.653 13.6 75.007-16.8l50.663-50.76v71.8c0 43 41.254 64.96 41.254 64.96l163.775 95.88 163.704-95.88s41.183-21.96 41.183-64.96v-71.8l50.725 50.76c30.305 30.4 75.075 16.8 75.075 16.8l183.43-48.19 48.05-183.74s13.57-44.71-16.72-75.096l-50.66-50.726h71.66c42.92 0 64.89-41.334 64.89-41.334l95.68-163.92z"/><path d="m1307.57 603.536c-14.62-26.043-39.52-29.481-39.52-29.481h-166.41l-.84-2.253 117.53-117.687s15.27-20.077 7.25-48.849c-8.02-28.78-34.39-141.835-34.39-141.835s-112.78-26.406-141.47-34.442c-28.92-7.994-48.94 7.264-48.94 7.264l-117.465 117.787-2.241-.943v-166.569s-3.471-24.921-29.521-39.603c-25.917-14.703-124.333-75.96-124.333-75.96s-98.475 61.257-124.392 75.96c-26.183 14.682-29.517 39.603-29.517 39.603v166.569l-2.179.943-117.598-117.787s-19.95-15.258-48.889-7.264c-28.67 8.036-141.46 34.442-141.46 34.442s-26.37 113.055-34.459 141.835c-7.942 28.772 7.324 48.849 7.324 48.849l117.532 117.687-.905 2.253h-166.409s-24.828 3.438-39.583 29.481c-14.693 25.993-75.783 124.525-75.783 124.525s61.09 98.536 75.783 124.621c14.755 26.056 39.583 29.397 39.583 29.397h166.409l.905 2.241-117.532 117.75s-15.266 20.08-7.324 48.92c8.089 28.79 34.459 141.68 34.459 141.68s112.79 26.43 141.594 34.49c28.805 8.03 48.755-7.2 48.755-7.2l117.598-117.71 2.179.94v166.34s3.334 24.99 29.517 39.76c25.917 14.75 124.392 75.93 124.392 75.93s98.416-61.18 124.333-75.93c26.05-14.77 29.521-39.76 29.521-39.76v-166.34l2.241-.94 117.465 117.71s20.02 15.23 48.94 7.2c28.69-8.06 141.47-34.49 141.47-34.49s26.37-112.93 34.39-141.68c8.02-28.88-7.25-48.92-7.25-48.92l-117.53-117.75.84-2.241h166.41s24.9-3.341 39.52-29.397c14.76-26.085 75.83-124.621 75.83-124.621s-61.07-98.532-75.83-124.525" fill="#d59f0f"/><path d="m1156.47 803.662c-9.2 15.758-24.98 17.782-24.98 17.782h-127.3v-186.8h127.3s15.78 2.086 24.98 18.007c9.4 15.809 47.9 75.418 47.9 75.418s-38.5 59.855-47.9 75.593m-77.42 144.765s9.59 12.438 5.05 30.348c-4.6 17.67-19.48 87.265-19.48 87.265s-69.434 14.93-87.125 19.48c-17.767 4.51-30.409-5.19-30.409-5.19l-72.754-72.73h129.858v-134.051zm-565.422-434.274h427.133v427.84h-427.133zm306.729 618.827s-1.979 15.68-17.762 25.08c-15.771 9.31-75.363 47.89-75.363 47.89s-59.725-38.58-75.5-47.89c-15.654-9.4-17.767-25.08-17.767-25.08v-125.38h186.392zm-313.05-52.65s-12.585 9.7-30.342 5.16c-17.826-4.52-87.198-19.45-87.198-19.45s-14.939-69.595-19.477-87.265c-4.537-17.91 5.172-30.348 5.172-30.348l67.906-68.135v127.308h136.693zm-184.347-258.886s-15.714-2.024-25.107-17.782c-9.259-15.738-47.832-75.593-47.832-75.593s38.573-59.609 47.832-75.418c9.393-15.921 25.107-18.007 25.107-18.007h120.408v186.8zm52.502-313.582s-9.709-12.571-5.172-30.362c4.538-17.786 19.477-87.317 19.477-87.317s69.372-14.97 87.198-19.476c17.757-4.677 30.342 5.115 30.342 5.115l63.108 63.235h-127.047v136.829zm258.503-184.593s2.113-15.776 17.767-25.105c15.775-9.337 75.5-48.018 75.5-48.018s59.592 38.681 75.363 48.018c15.783 9.329 17.762 25.105 17.762 25.105v115.788h-186.392zm313.121 52.553s12.642-9.792 30.342-5.115c17.758 4.506 87.192 19.476 87.192 19.476s14.88 69.531 19.48 87.317c4.54 17.791-5.18 30.362-5.18 30.362l-74.73 74.871v-143.676h-120.212zm242.284 252.809s-13.87-25.066-41.14-25.066h-120.72l85.33-85.569c19.3-19.159 11.5-46.821 11.5-46.821l-27.46-113.306-113.194-27.47s-27.529-7.873-46.758 11.453l-85.333 85.435v-120.908c0-27.157-25.109-41.075-25.109-41.075l-99.254-60.794-99.404 60.794s-25.034 13.918-25.034 41.075v120.908l-85.403-85.435c-19.166-19.326-46.753-11.453-46.753-11.453l-113.123 27.47-27.466 113.335s-7.794 27.633 11.429 46.792l85.409 85.569h-120.727c-27.276 0-41.2 25.066-41.2 25.066l-60.753 99.438 60.753 99.554s13.924 25.104 41.2 25.104h120.727l-85.409 85.428c-19.223 19.233-11.429 46.792-11.429 46.792l27.466 113.423 113.123 27.41s27.587 7.84 46.753-11.41l85.403-85.47v120.94c0 27.22 25.034 41.1 25.034 41.1l99.404 60.81 99.254-60.81s25.109-13.88 25.109-41.1v-120.94l85.333 85.47c19.229 19.25 46.758 11.41 46.758 11.41l113.194-27.41 27.46-113.423s7.8-27.559-11.5-46.792l-85.33-85.428h120.72c27.27 0 41.14-25.104 41.14-25.104l60.67-99.554z"/><path d="m729.142 736.012c-3.834 0-7.038-3.211-7.038-7.13 0-3.893 3.204-7.104 7.038-7.143 3.911.039 7.039 3.25 7.039 7.143 0 3.919-3.128 7.13-7.039 7.13m191.667-65.729c-57.466-42.15-87.031-30.513-91.774-30.065-4.667.375-98.673 37.578-99.893 38.031-1.208-.453-95.157-37.656-99.893-38.031-4.737-.448-34.233-12.085-91.774 30.065l171.385 66.087-144.827 73.109h41.665l123.444-63.228 123.45 63.228h41.722l-144.819-73.109z"/><path d="m825.974 657.747-98.927 38.367-98.927-38.367s-30.6-9.306-57.289 7.1l137.66 52.856s5.091-9.705 18.556-9.804c13.472.099 18.627 9.804 18.627 9.804l137.658-52.856c-26.744-16.406-57.358-7.1-57.358-7.1" fill="#fff"/></g></svg>